<?xml version="1.0" encoding="UTF-8"?>
<svg width="208px" height="43px" viewBox="0 0 208 43" version="1.1" xmlns="http://www.w3.org/2000/svg" xmlns:xlink="http://www.w3.org/1999/xlink">
    <!-- Generator: Sketch 62 (91390) - https://sketch.com -->
    <title>apple</title>
    <desc>Created with Sketch.</desc>
    <g id="Page-1" stroke="none" stroke-width="1" fill="none" fill-rule="evenodd">
        <g id="apple" transform="translate(-6.000000, -2.000000)" fill="#FFFFFF" fill-rule="nonzero">
            <path d="M45.9492188,42.4140625 L45.9492188,36.8671875 L51.6816406,36.8671875 L51.6816406,34.5332031 L45.9492188,34.5332031 L45.9492188,30.7539063 L52.2285156,30.7539063 L52.2285156,28.3222656 L43,28.3222656 L43,42.4140625 L45.9492188,42.4140625 Z M58.4199219,33.8300781 C59.6894531,33.8300781 60.5585938,34.7480469 60.6171875,36.0859375 L56.1738281,36.0859375 C56.2714844,34.7773437 57.1699219,33.8300781 58.4199219,33.8300781 Z M60.65625,39.2109375 C60.3925781,40.0117187 59.5917969,40.5292969 58.546875,40.5292969 C57.0917969,40.5292969 56.1445312,39.5039063 56.1445312,38.0097656 L56.1445312,37.8339844 L63.3613281,37.8339844 L63.3613281,36.9648437 C63.3613281,33.78125 61.4375,31.7207031 58.390625,31.7207031 C55.2949219,31.7207031 53.3417969,33.8886719 53.3417969,37.2285156 C53.3417969,40.578125 55.2753906,42.6386719 58.4980469,42.6386719 C61.0859375,42.6386719 62.9609375,41.2617187 63.2734375,39.2109375 L60.65625,39.2109375 Z M68.8691406,40.5195313 C67.9023438,40.5195313 67.2578125,40.03125 67.2578125,39.25 C67.2578125,38.5078125 67.8632812,38.0292969 68.9277344,37.9511719 L71.1347656,37.8144531 L71.1347656,38.5761719 C71.1347656,39.7089844 70.109375,40.5195313 68.8691406,40.5195313 Z M67.9316406,42.5800781 C69.2402344,42.5800781 70.5390625,41.9257813 71.125,40.8125 L71.1835938,40.8125 L71.1835938,42.4140625 L73.9375,42.4140625 L73.9375,35.2167969 C73.9375,33.1074219 72.1894531,31.7207031 69.5039062,31.7207031 C66.7304688,31.7207031 65.0019531,33.1171875 64.8945312,35.1484375 L67.5019531,35.1484375 C67.6386719,34.3769531 68.3125,33.8496094 69.3769531,33.8496094 C70.4511719,33.8496094 71.1347656,34.4160156 71.1347656,35.3925781 L71.1347656,36.0859375 L68.4980469,36.2421875 C65.890625,36.3984375 64.4257812,37.5019531 64.4257812,39.40625 C64.4257812,41.2910156 65.9394531,42.5800781 67.9316406,42.5800781 Z M76.5351562,29.5332031 L76.5351562,31.9453125 L75.0605469,31.9453125 L75.0605469,34.09375 L76.5351562,34.09375 L76.5351562,39.5917969 C76.5351562,41.6328125 77.4921875,42.453125 79.953125,42.453125 C80.5292969,42.453125 81.0175781,42.4042969 81.3105469,42.3359375 L81.3105469,40.2363281 C81.1347656,40.265625 80.8710938,40.2851563 80.6171875,40.2851563 C79.7773438,40.2851563 79.3867188,39.9042969 79.3867188,39.1035156 L79.3867188,34.09375 L81.3203125,34.09375 L81.3203125,31.9453125 L79.3867188,31.9453125 L79.3867188,29.5332031 L76.5351562,29.5332031 Z M92.5507812,31.9453125 L89.6992188,31.9453125 L89.6992188,37.9414063 C89.6992188,39.328125 88.9082031,40.2363281 87.6386719,40.2363281 C86.3789062,40.2363281 85.6855469,39.4941406 85.6855469,38.0976563 L85.6855469,31.9453125 L82.8339844,31.9453125 L82.8339844,38.6933594 C82.8339844,41.1347656 84.3378906,42.609375 86.6035156,42.609375 C88.1855469,42.609375 89.2207031,41.8476563 89.7382812,40.5292969 L89.796875,40.5292969 L89.796875,42.4140625 L92.5507812,42.4140625 L92.5507812,31.9453125 Z M94.40625,42.4140625 L97.2578125,42.4140625 L97.2578125,36.5644531 C97.2578125,35.0898437 98.078125,34.2304687 99.484375,34.2304687 C99.894531,34.2304687 100.285156,34.2988281 100.519531,34.3964844 L100.519531,31.8867187 C100.324219,31.828125 100.041016,31.7792969 99.7089844,31.7792969 C98.4785156,31.7792969 97.5898438,32.5019531 97.21875,33.8300781 L97.1601562,33.8300781 L97.1601562,31.9453125 L94.40625,31.9453125 L94.40625,42.4140625 Z M106.378906,33.8300781 C107.648437,33.8300781 108.517578,34.7480469 108.576172,36.0859375 L104.132813,36.0859375 C104.230469,34.7773437 105.128906,33.8300781 106.378906,33.8300781 Z M108.615234,39.2109375 C108.351563,40.0117187 107.550781,40.5292969 106.505859,40.5292969 C105.050781,40.5292969 104.103516,39.5039063 104.103516,38.0097656 L104.103516,37.8339844 L111.320313,37.8339844 L111.320313,36.9648437 C111.320313,33.78125 109.396484,31.7207031 106.349609,31.7207031 C103.253906,31.7207031 101.300781,33.8886719 101.300781,37.2285156 C101.300781,40.578125 103.234375,42.6386719 106.457031,42.6386719 C109.044922,42.6386719 110.919922,41.2617187 111.232422,39.2109375 L108.615234,39.2109375 Z M116.671875,42.5800781 C118.214844,42.5800781 119.425781,41.7695313 119.933594,40.6171875 L119.982422,40.6171875 L119.982422,42.4140625 L122.794922,42.4140625 L122.794922,28.3222656 L119.943359,28.3222656 L119.943359,33.7421875 L119.884766,33.7421875 C119.376953,32.5800781 118.205078,31.7792969 116.691406,31.7792969 C114.064453,31.7792969 112.404297,33.8398437 112.404297,37.1601563 C112.404297,40.5097656 114.054687,42.5800781 116.671875,42.5800781 Z M117.638672,34.0644531 C119.054687,34.0644531 119.962891,35.2753906 119.962891,37.1796875 C119.962891,39.09375 119.054687,40.2851563 117.638672,40.2851563 C116.203125,40.2851563 115.324219,39.1035156 115.324219,37.1796875 C115.324219,35.265625 116.203125,34.0644531 117.638672,34.0644531 Z M128.556641,32.609375 L131.291016,32.609375 C131.291016,31.2519531 132.355469,30.3046875 133.761719,30.3046875 C135.03125,30.3046875 135.900391,31.1640625 135.900391,32.296875 C135.900391,33.2734375 135.5,33.9472656 133.712891,35.6660156 L128.722656,40.3925781 L128.722656,42.4140625 L138.966797,42.4140625 L138.966797,40.0703125 L132.580078,40.0703125 L132.580078,40.0117187 L135.539063,37.1796875 C137.921875,34.9042969 138.771484,33.8398437 138.771484,32.1113281 C138.771484,29.7675781 136.779297,28.0097656 133.761719,28.0097656 C130.705078,28.0097656 128.556641,29.8945313 128.556641,32.609375 Z M146.349609,42.7265625 C149.923828,42.7265625 152.091797,39.8847656 152.091797,35.3339844 C152.091797,30.7832031 149.904297,28 146.349609,28 C142.794922,28 140.597656,30.7929687 140.597656,35.34375 C140.597656,39.9042969 142.775391,42.7265625 146.349609,42.7265625 Z M146.349609,40.3632813 C144.611328,40.3632813 143.595703,38.5761719 143.595703,35.34375 C143.595703,32.140625 144.630859,30.3632813 146.349609,30.3632813 C148.078125,30.3632813 149.09375,32.1308594 149.09375,35.34375 C149.09375,38.5761719 148.087891,40.3632813 146.349609,40.3632813 Z M157.423828,42.4140625 L160.34375,42.4140625 L160.34375,28.3222656 L157.414063,28.3222656 L153.771484,30.8515625 L153.771484,33.46875 L157.365234,31.0273437 L157.423828,31.0273437 L157.423828,42.4140625 Z M168.703125,42.7265625 C172.365234,42.7265625 174.582031,39.9140625 174.582031,35.2460937 C174.582031,30.0996094 171.808594,28 168.703125,28 C165.558594,28 163.273437,30.0800781 163.273437,33 C163.273437,35.7441406 165.333984,37.5996094 167.951172,37.5996094 C169.796875,37.5996094 171.193359,36.6816406 171.701172,35.3144531 L171.759766,35.3144531 C171.779297,38.3417969 170.832031,40.3925781 168.712891,40.3925781 C167.53125,40.3925781 166.662109,39.8554687 166.349609,38.8496094 L163.439453,38.8496094 C163.810547,41.1347656 165.939453,42.7265625 168.703125,42.7265625 Z M168.712891,35.4121094 C167.238281,35.4121094 166.144531,34.3574219 166.144531,32.8828125 C166.144531,31.4570313 167.287109,30.3535156 168.742187,30.3535156 C170.1875,30.3535156 171.330078,31.4765625 171.330078,32.9316406 C171.330078,34.3769531 170.197266,35.4121094 168.712891,35.4121094 Z" id="Featured2019"></path>
            <g id="Apple" transform="translate(79.000000, 4.000000)">
                <path d="M25.2265625,13.2734375 L26.703125,13.2734375 L22.546875,2 L21.15625,2 L17,13.2734375 L18.4765625,13.2734375 L19.609375,10.046875 L24.09375,10.046875 L25.2265625,13.2734375 Z M21.828125,3.7109375 L21.875,3.7109375 L23.6796875,8.8515625 L20.0234375,8.8515625 L21.828125,3.7109375 Z M31.7265625,5.0078125 C30.5468755,5.0078125 29.6015625,5.609375 29.1015625,6.5234375 L29.0703125,6.5234375 L29.0703125,5.1484375 L27.78125,5.1484375 L27.78125,15.984375 L29.1406255,15.984375 L29.1406255,11.953125 L29.1718755,11.953125 C29.6562495,12.84375 30.5937495,13.4140625 31.7578125,13.4140625 C33.8046875,13.4140625 35.2031255,11.7578125 35.2031255,9.2109375 C35.2031255,6.6640625 33.7968755,5.0078125 31.7265625,5.0078125 Z M31.4609375,12.21875 C30.0703125,12.21875 29.1328125,11.0234375 29.1328125,9.2109375 C29.1328125,7.40625 30.0703125,6.203125 31.4609375,6.203125 C32.9062495,6.203125 33.8124995,7.375 33.8124995,9.2109375 C33.8124995,11.0546875 32.9062495,12.21875 31.4609375,12.21875 Z M40.5156255,5.0078125 C39.3359375,5.0078125 38.3906255,5.609375 37.8906255,6.5234375 L37.8593755,6.5234375 L37.8593755,5.1484375 L36.5703125,5.1484375 L36.5703125,15.984375 L37.9296875,15.984375 L37.9296875,11.953125 L37.9609375,11.953125 C38.4453125,12.84375 39.3828125,13.4140625 40.5468755,13.4140625 C42.5937495,13.4140625 43.9921875,11.7578125 43.9921875,9.2109375 C43.9921875,6.6640625 42.5859375,5.0078125 40.5156255,5.0078125 Z M40.2499995,12.21875 C38.8593755,12.21875 37.9218755,11.0234375 37.9218755,9.2109375 C37.9218755,7.40625 38.8593755,6.203125 40.2499995,6.203125 C41.6953125,6.203125 42.6015625,7.375 42.6015625,9.2109375 C42.6015625,11.0546875 41.6953125,12.21875 40.2499995,12.21875 Z M51.9062495,5.0078125 C54.1015625,5.0078125 55.4531255,6.6015625 55.4531255,9.0625 L55.4531255,9.578125 L49.6249995,9.578125 L49.6249995,9.65625 C49.6249995,11.2109375 50.5390625,12.234375 51.9999995,12.234375 C53.0312495,12.234375 53.7890625,11.7109375 54.0156255,10.9453125 L55.3515625,10.9453125 C55.1171875,12.3671875 53.7421875,13.4140625 51.9687495,13.4140625 C49.6406255,13.4140625 48.2265625,11.796875 48.2265625,9.2421875 C48.2265625,6.71875 49.6640625,5.0078125 51.9062495,5.0078125 Z M46.7890625,2 L46.7890625,13.2734375 L45.4296875,13.2734375 L45.4296875,2 L46.7890625,2 Z M51.8828125,6.1875 C50.6647415,6.1875 49.7969195,7.0809901 49.6485505,8.3415103 L49.6328125,8.515625 L54.0468755,8.515625 C54.0156255,7.15625 53.1640625,6.1875 51.8828125,6.1875 Z"></path>
                <path d="M11.4221514,10.9102508 C11.2126885,11.3993718 10.9647525,11.8496048 10.6774888,12.2635431 C10.2859208,12.8278462 9.96531414,13.218452 9.71823312,13.4353593 C9.33521505,13.7913978 8.92483831,13.9737378 8.48539314,13.9841081 C8.16991618,13.9841081 7.78946268,13.8933697 7.3465979,13.7093021 C6.9022798,13.5260965 6.49395487,13.4353593 6.1205975,13.4353593 C5.72902975,13.4353593 5.30907747,13.5260965 4.85988609,13.7093021 C4.41001023,13.8933697 4.04759654,13.9892932 3.77050664,13.9987991 C3.34910105,14.0169466 2.92906372,13.8294214 2.50979523,13.4353593 C2.24219569,13.1994402 1.90748228,12.7950077 1.5065098,12.2220619 C1.0762984,11.6102295 0.722604977,10.9007449 0.445515193,10.0918806 C0.148761564,9.21820325 0,8.37217954 0,7.55311827 C0,6.61488752 0.200571628,5.80567745 0.602313291,5.12756211 C0.918046855,4.58287523 1.33808448,4.15320911 1.86379389,3.8377864 C2.38950377,3.52236416 2.95753353,3.36162832 3.56925145,3.35134446 C3.90396463,3.35134446 4.34289705,3.45599562 4.8883559,3.66166846 C5.43227604,3.86803257 5.78152378,3.97268374 5.93464535,3.97268374 C6.04912332,3.97268374 6.4371003,3.85031685 7.0948145,3.60636162 C7.71679197,3.38012152 8.24173196,3.28644503 8.67177252,3.32334511 C9.8370715,3.41840403 10.7125418,3.8827234 11.2947638,4.7192412 C10.2525781,5.35751825 9.73704223,6.25150338 9.74730154,7.39834506 C9.75670604,8.2916388 10.0773127,9.03499886 10.7074119,9.62522828 C10.9929655,9.89917013 11.3118627,10.1108922 11.6666667,10.2612582 C11.5897221,10.4868067 11.5085017,10.7028497 11.4221514,10.9102508 Z M8.74957341,0.280079712 C8.74957341,0.980239556 8.49650738,1.63397681 7.99208637,2.23906924 C7.38336048,2.95840578 6.64707667,3.37407198 5.84863731,3.30848151 C5.83846352,3.22448393 5.83256427,3.13607938 5.83256427,3.04318107 C5.83256427,2.37102836 6.12205093,1.65169218 6.63613346,1.06353714 C6.89278943,0.76574394 7.21920995,0.518132925 7.6150526,0.320608925 C8.01004008,0.1260321 8.383654,0.0184269262 8.73503873,0 C8.74529886,0.0936004333 8.74957341,0.187206757 8.74957341,0.280070632 L8.74957341,0.280079712 Z" id="logo"></path>
            </g>
            <g id="Right-Side" opacity="0.5" transform="translate(202.000000, 23.500000) rotate(-15.000000) translate(-202.000000, -23.500000) translate(189.000000, 3.000000)">
                <path d="M19.1016396,6.6144 C20.3958396,1.4436 15.6498396,-5.5067062e-14 15.6498396,-5.5067062e-14 C15.6498396,-5.5067062e-14 14.1204396,4.7184 19.1016396,6.6144 Z" id="Path"></path>
                <path d="M24.2892396,4.6506 C24.2892396,4.6506 19.5426396,6.0936 20.8350396,11.2638 C25.8168396,9.3702 24.2892396,4.6506 24.2892396,4.6506 Z" id="Path"></path>
                <path d="M21.0480396,17.5836 C26.2608396,16.4706 25.4688396,11.5728 25.4688396,11.5728 C25.4688396,11.5728 20.5584396,12.2766 21.0480396,17.5836 Z" id="Path"></path>
                <path d="M19.2438396,23.283 C24.5550396,23.7336 25.2204396,18.8172 25.2204396,18.8172 C25.2204396,18.8172 20.3178396,18.0624 19.2438396,23.283 Z" id="Path"></path>
                <path d="M15.9432396,28.8294 C20.9412396,30.6834 22.8966396,26.124 22.8966396,26.124 C22.8966396,26.124 18.3738396,24.0864 15.9432396,28.8294 Z" id="Path"></path>
                <path d="M10.9728396,32.5602 C15.0690396,35.9718 18.4302396,32.3226 18.4302396,32.3226 C18.4302396,32.3226 14.8434396,28.8966 10.9728396,32.5602 Z" id="Path"></path>
                <path d="M5.57223961,35.5416 C8.91963961,39.6894 12.9312396,36.7704 12.9312396,36.7704 C12.9312396,36.7704 10.0854396,32.7072 5.57223961,35.5416 Z" id="Path"></path>
                <path d="M0.61503961,36.5874 C2.73063961,41.4798 7.37703961,39.7404 7.37703961,39.7404 C7.37703961,39.7404 5.72223961,35.064 0.61503961,36.5874 Z" id="Path"></path>
                <path d="M19.5702396,11.3214 C19.4514396,5.9928 14.4924396,5.8548 14.4924396,5.8548 C14.4924396,5.8548 14.2650396,10.8102 19.5702396,11.3214 Z" id="Path"></path>
                <path d="M15.4362396,11.2176 C15.4362396,11.2176 14.3364396,16.0536 19.4670396,17.496 C20.2926396,12.2304 15.4362396,11.2176 15.4362396,11.2176 Z" id="Path"></path>
                <path d="M17.7408396,22.9434 C19.6164396,17.9544 15.0666396,15.978 15.0666396,15.978 C15.0666396,15.978 13.0086396,20.4906 17.7408396,22.9434 Z" id="Path"></path>
                <path d="M14.5794396,27.9852 C17.5728396,23.5752 13.6140396,20.5872 13.6140396,20.5872 C13.6140396,20.5872 10.5546396,24.4908 14.5794396,27.9852 Z" id="Path"></path>
                <path d="M11.1102396,24.1518 C11.1102396,24.1518 7.28703961,27.3114 10.4724396,31.5852 C14.3388396,27.9162 11.1102396,24.1518 11.1102396,24.1518 Z" id="Path"></path>
                <path d="M7.40523961,26.5146 C7.40523961,26.5146 3.06543961,28.9158 5.40903961,33.7026 C9.88503961,30.8094 7.40523961,26.5146 7.40523961,26.5146 Z" id="Path"></path>
                <path d="M3.65643961,28.7298 C3.65643961,28.7298 -1.08296039,30.1908 0.22983961,35.3568 C5.20383961,33.4428 3.65643961,28.7298 3.65643961,28.7298 Z" id="Path"></path>
            </g>
            <g id="Left-Side" opacity="0.5" transform="translate(18.000000, 23.500000) rotate(15.000000) translate(-18.000000, -23.500000) translate(5.000000, 3.000000)">
                <path d="M9.86201566,5.86197757e-14 C9.86201566,5.86197757e-14 5.11601566,1.4436 6.41021566,6.6144 C11.3914157,4.719 9.86201566,5.86197757e-14 9.86201566,5.86197757e-14 Z" id="Path"></path>
                <path d="M4.67681566,11.2644 C5.96921566,6.0936 1.22261566,4.6512 1.22261566,4.6512 C1.22261566,4.6512 -0.304984344,9.3708 4.67681566,11.2644 Z" id="Path"></path>
                <path d="M4.46381566,17.5842 C4.95341566,12.2772 0.0430156564,11.5734 0.0430156564,11.5734 C0.0430156564,11.5734 -0.748984344,16.4706 4.46381566,17.5842 Z" id="Path"></path>
                <path d="M6.26801566,23.2836 C5.19401566,18.063 0.291415656,18.8178 0.291415656,18.8178 C0.291415656,18.8178 0.956815656,23.7336 6.26801566,23.2836 Z" id="Path"></path>
                <path d="M9.56861566,28.83 C7.13801566,24.087 2.61521566,26.1246 2.61521566,26.1246 C2.61521566,26.1246 4.57001566,30.684 9.56861566,28.83 Z" id="Path"></path>
                <path d="M7.08161566,32.3232 C7.08161566,32.3232 10.4428157,35.9724 14.5390157,32.5608 C10.6678157,28.8972 7.08161566,32.3232 7.08161566,32.3232 Z" id="Path"></path>
                <path d="M19.9396157,35.5422 C15.4264157,32.7078 12.5806157,36.771 12.5806157,36.771 C12.5806157,36.771 16.5922157,39.69 19.9396157,35.5422 Z" id="Path"></path>
                <path d="M18.1342157,39.741 C18.1342157,39.741 22.7806157,41.481 24.8962157,36.588 C19.7896157,35.0646 18.1342157,39.741 18.1342157,39.741 Z" id="Path"></path>
                <path d="M11.0200157,5.8554 C11.0200157,5.8554 6.06101566,5.9934 5.94221566,11.322 C11.2468157,10.8108 11.0200157,5.8554 11.0200157,5.8554 Z" id="Path"></path>
                <path d="M10.0756157,11.2182 C10.0756157,11.2182 5.21921566,12.231 6.04481566,17.4966 C11.1760157,16.0542 10.0756157,11.2182 10.0756157,11.2182 Z" id="Path"></path>
                <path d="M10.4446157,15.9786 C10.4446157,15.9786 5.89481566,17.955 7.77041566,22.944 C12.5032157,20.4912 10.4446157,15.9786 10.4446157,15.9786 Z" id="Path"></path>
                <path d="M10.9324157,27.9858 C14.9572157,24.4914 11.8978157,20.5878 11.8978157,20.5878 C11.8978157,20.5878 7.93901566,23.5758 10.9324157,27.9858 Z" id="Path"></path>
                <path d="M14.4016157,24.1524 C14.4016157,24.1524 11.1730157,27.9174 15.0394157,31.5858 C18.2248157,27.312 14.4016157,24.1524 14.4016157,24.1524 Z" id="Path"></path>
                <path d="M20.1028157,33.7032 C22.4464157,28.9158 18.1066157,26.5152 18.1066157,26.5152 C18.1066157,26.5152 15.6268157,30.81 20.1028157,33.7032 Z" id="Path"></path>
                <path d="M21.8554157,28.7304 C21.8554157,28.7304 20.3080157,33.4428 25.2820157,35.3574 C26.5948157,30.1914 21.8554157,28.7304 21.8554157,28.7304 Z" id="Path"></path>
            </g>
        </g>
    </g>
</svg>