<?xml version="1.0" encoding="UTF-8"?>
<svg width="237px" height="45px" viewBox="0 0 237 45" version="1.1" xmlns="http://www.w3.org/2000/svg" xmlns:xlink="http://www.w3.org/1999/xlink">
    <!-- Generator: Sketch 58 (84663) - https://sketch.com -->
    <title>PH badge</title>
    <desc>Created with Sketch.</desc>
    <g id="Website" stroke="none" stroke-width="1" fill="none" fill-rule="evenodd">
        <g id="Badges" transform="translate(-336.000000, -883.000000)" fill="#FFFFFF" fill-rule="nonzero">
            <g id="PH-badge" transform="translate(336.000000, 883.000000)">
                <path d="M66.5634766,39 L68.5146484,39 L69.1826172,35.6601562 L71.3183594,35.6601562 L71.6787109,33.7617188 L69.5605469,33.7617188 L70.0351562,31.3886719 L72.1357422,31.3886719 L72.4960938,29.5078125 L70.421875,29.5078125 L71.0634766,26.3085938 L69.1123047,26.3085938 L68.4619141,29.5078125 L66.1591797,29.5078125 L66.7919922,26.3085938 L64.8583984,26.3085938 L64.2080078,29.5078125 L62.1689453,29.5078125 L61.8085938,31.3886719 L63.8300781,31.3886719 L63.3554688,33.7617188 L61.3603516,33.7617188 L61,35.6601562 L62.9775391,35.6601562 L62.3183594,39 L64.2519531,39 L64.9287109,35.6601562 L67.2402344,35.6601562 L66.5634766,39 Z M65.1396484,33.9287109 L65.6845703,31.2304688 L68.2509766,31.2304688 L67.6972656,33.9287109 L65.1396484,33.9287109 Z M76.5654297,39 L79.1933594,39 L79.1933594,26.3173828 L76.5566406,26.3173828 L73.2783203,28.59375 L73.2783203,30.9492188 L76.5126953,28.7519531 L76.5654297,28.7519531 L76.5654297,39 Z M85.75,26.3173828 L85.75,39 L88.4042969,39 L88.4042969,35.0009766 L90.7773438,35.0009766 C93.4492188,35.0009766 95.3037109,33.2607422 95.3037109,30.6591797 C95.3037109,28.0488281 93.5107422,26.3173828 90.9091797,26.3173828 L85.75,26.3173828 Z M88.4042969,28.4179688 L90.2060547,28.4179688 C91.7265625,28.4179688 92.6054688,29.2265625 92.6054688,30.6679688 C92.6054688,32.1181641 91.7177734,32.9267578 90.1972656,32.9267578 L88.4042969,32.9267578 L88.4042969,28.4179688 Z M96.6484375,39 L99.2148438,39 L99.2148438,33.7353516 C99.2148438,32.4082031 99.953125,31.6347656 101.21875,31.6347656 C101.587891,31.6347656 101.939453,31.6962891 102.150391,31.7841797 L102.150391,29.5253906 C101.974609,29.4726562 101.719727,29.4287109 101.420898,29.4287109 C100.313477,29.4287109 99.5136719,30.0791016 99.1796875,31.2744141 L99.1269531,31.2744141 L99.1269531,29.578125 L96.6484375,29.578125 L96.6484375,39 Z M107.520508,39.2021484 C110.368164,39.2021484 112.1875,37.3828125 112.1875,34.2802734 C112.1875,31.2216797 110.341797,29.3759766 107.520508,29.3759766 C104.699219,29.3759766 102.853516,31.2304688 102.853516,34.2802734 C102.853516,37.3740234 104.672852,39.2021484 107.520508,39.2021484 Z M107.520508,37.2421875 C106.254883,37.2421875 105.455078,36.1787109 105.455078,34.2890625 C105.455078,32.4169922 106.272461,31.3359375 107.520508,31.3359375 C108.768555,31.3359375 109.577148,32.4169922 109.577148,34.2890625 C109.577148,36.1787109 108.777344,37.2421875 107.520508,37.2421875 Z M117.003906,39.1494141 C118.392578,39.1494141 119.482422,38.4199219 119.939453,37.3828125 L119.983398,37.3828125 L119.983398,39 L122.514648,39 L122.514648,26.3173828 L119.948242,26.3173828 L119.948242,31.1953125 L119.895508,31.1953125 C119.438477,30.1494141 118.383789,29.4287109 117.021484,29.4287109 C114.657227,29.4287109 113.163086,31.2832031 113.163086,34.2714844 C113.163086,37.2861328 114.648438,39.1494141 117.003906,39.1494141 Z M117.874023,31.4853516 C119.148438,31.4853516 119.96582,32.5751953 119.96582,34.2890625 C119.96582,36.0117188 119.148438,37.0839844 117.874023,37.0839844 C116.582031,37.0839844 115.791016,36.0205078 115.791016,34.2890625 C115.791016,32.5664062 116.582031,31.4853516 117.874023,31.4853516 Z M132.929688,29.578125 L130.363281,29.578125 L130.363281,34.9746094 C130.363281,36.2226562 129.651367,37.0400391 128.508789,37.0400391 C127.375,37.0400391 126.750977,36.3720703 126.750977,35.1152344 L126.750977,29.578125 L124.18457,29.578125 L124.18457,35.6513672 C124.18457,37.8486328 125.538086,39.1757812 127.577148,39.1757812 C129.000977,39.1757812 129.932617,38.4902344 130.398438,37.3037109 L130.451172,37.3037109 L130.451172,39 L132.929688,39 L132.929688,29.578125 Z M143.160156,33.0849609 C143.045898,30.9492188 141.428711,29.3759766 138.879883,29.3759766 C136.058594,29.3759766 134.256836,31.2568359 134.256836,34.2802734 C134.256836,37.3564453 136.058594,39.2021484 138.897461,39.2021484 C141.375977,39.2021484 143.037109,37.7695312 143.168945,35.5458984 L140.77832,35.5458984 C140.620117,36.5742188 139.952148,37.1894531 138.923828,37.1894531 C137.649414,37.1894531 136.858398,36.1347656 136.858398,34.2802734 C136.858398,32.4609375 137.649414,31.3886719 138.915039,31.3886719 C139.969727,31.3886719 140.628906,32.0917969 140.77832,33.0849609 L143.160156,33.0849609 Z M145.09375,27.4072266 L145.09375,29.578125 L143.766602,29.578125 L143.766602,31.5117188 L145.09375,31.5117188 L145.09375,36.4599609 C145.09375,38.296875 145.955078,39.0351562 148.169922,39.0351562 C148.688477,39.0351562 149.12793,38.9912109 149.391602,38.9296875 L149.391602,37.0400391 C149.233398,37.0664062 148.996094,37.0839844 148.767578,37.0839844 C148.011719,37.0839844 147.660156,36.7412109 147.660156,36.0205078 L147.660156,31.5117188 L149.400391,31.5117188 L149.400391,29.578125 L147.660156,29.578125 L147.660156,27.4072266 L145.09375,27.4072266 Z M158.69043,39.2021484 C161.538086,39.2021484 163.357422,37.3828125 163.357422,34.2802734 C163.357422,31.2216797 161.511719,29.3759766 158.69043,29.3759766 C155.869141,29.3759766 154.023438,31.2304688 154.023438,34.2802734 C154.023438,37.3740234 155.842773,39.2021484 158.69043,39.2021484 Z M158.69043,37.2421875 C157.424805,37.2421875 156.625,36.1787109 156.625,34.2890625 C156.625,32.4169922 157.442383,31.3359375 158.69043,31.3359375 C159.938477,31.3359375 160.74707,32.4169922 160.74707,34.2890625 C160.74707,36.1787109 159.947266,37.2421875 158.69043,37.2421875 Z M165.361328,39 L167.927734,39 L167.927734,31.5117188 L169.738281,31.5117188 L169.738281,29.6220703 L167.866211,29.6220703 L167.866211,28.9980469 C167.866211,28.3300781 168.235352,27.9609375 169.079102,27.9609375 C169.333984,27.9609375 169.588867,27.9785156 169.773438,28.0136719 L169.773438,26.3173828 C169.474609,26.2558594 168.938477,26.203125 168.463867,26.203125 C166.231445,26.203125 165.361328,27.0644531 165.361328,28.9101562 L165.361328,29.6220703 L164.078125,29.6220703 L164.078125,31.5117188 L165.361328,31.5117188 L165.361328,39 Z M175.328125,27.4072266 L175.328125,29.578125 L174.000977,29.578125 L174.000977,31.5117188 L175.328125,31.5117188 L175.328125,36.4599609 C175.328125,38.296875 176.189453,39.0351562 178.404297,39.0351562 C178.922852,39.0351562 179.362305,38.9912109 179.625977,38.9296875 L179.625977,37.0400391 C179.467773,37.0664062 179.230469,37.0839844 179.001953,37.0839844 C178.246094,37.0839844 177.894531,36.7412109 177.894531,36.0205078 L177.894531,31.5117188 L179.634766,31.5117188 L179.634766,29.578125 L177.894531,29.578125 L177.894531,27.4072266 L175.328125,27.4072266 Z M181.102539,39 L183.668945,39 L183.668945,33.6210938 C183.668945,32.3818359 184.380859,31.5292969 185.59375,31.5292969 C186.762695,31.5292969 187.360352,32.2675781 187.360352,33.4804688 L187.360352,39 L189.926758,39 L189.926758,32.9355469 C189.926758,30.7558594 188.731445,29.4023438 186.639648,29.4023438 C185.207031,29.4023438 184.178711,30.0703125 183.677734,31.2568359 L183.625,31.2568359 L183.625,26.3173828 L181.102539,26.3173828 L181.102539,39 Z M195.789062,31.2744141 C196.931641,31.2744141 197.713867,32.1005859 197.766602,33.3046875 L193.767578,33.3046875 C193.855469,32.1269531 194.664062,31.2744141 195.789062,31.2744141 Z M197.801758,36.1171875 C197.564453,36.8378906 196.84375,37.3037109 195.90332,37.3037109 C194.59375,37.3037109 193.741211,36.3808594 193.741211,35.0361328 L193.741211,34.8779297 L200.236328,34.8779297 L200.236328,34.0957031 C200.236328,31.2304688 198.504883,29.3759766 195.762695,29.3759766 C192.976562,29.3759766 191.21875,31.3271484 191.21875,34.3330078 C191.21875,37.3476562 192.958984,39.2021484 195.859375,39.2021484 C198.188477,39.2021484 199.875977,37.9628906 200.157227,36.1171875 L197.801758,36.1171875 Z M205.333984,26.3173828 L205.333984,39 L210.176758,39 C213.982422,39 216.223633,36.6357422 216.223633,32.6103516 C216.223633,28.5849609 213.982422,26.3173828 210.176758,26.3173828 L205.333984,26.3173828 Z M207.988281,28.5058594 L209.860352,28.5058594 C212.198242,28.5058594 213.516602,29.9648438 213.516602,32.6191406 C213.516602,35.3613281 212.233398,36.8027344 209.860352,36.8027344 L207.988281,36.8027344 L207.988281,28.5058594 Z M221.356445,37.2949219 C220.486328,37.2949219 219.90625,36.8554688 219.90625,36.1523438 C219.90625,35.484375 220.451172,35.0537109 221.40918,34.9833984 L223.395508,34.8603516 L223.395508,35.5458984 C223.395508,36.5654297 222.472656,37.2949219 221.356445,37.2949219 Z M220.512695,39.1494141 C221.69043,39.1494141 222.859375,38.5605469 223.386719,37.5585938 L223.439453,37.5585938 L223.439453,39 L225.917969,39 L225.917969,32.5224609 C225.917969,30.6240234 224.344727,29.3759766 221.927734,29.3759766 C219.431641,29.3759766 217.875977,30.6328125 217.779297,32.4609375 L220.125977,32.4609375 C220.249023,31.7666016 220.855469,31.2919922 221.813477,31.2919922 C222.780273,31.2919922 223.395508,31.8017578 223.395508,32.6806641 L223.395508,33.3046875 L221.022461,33.4453125 C218.675781,33.5859375 217.357422,34.5791016 217.357422,36.2929688 C217.357422,37.9892578 218.719727,39.1494141 220.512695,39.1494141 Z M228.783203,42.4892578 L228.218786,42.4811198 C228.024631,42.4767795 227.84668,42.4707031 227.807617,42.4628906 L227.807617,40.4853516 C227.895508,40.5029297 228.361328,40.5029297 228.458008,40.5029297 C229.389648,40.5029297 229.855469,40.2041016 230.03125,39.4570312 C230.03125,39.421875 230.12793,39.0439453 230.119141,39.0087891 L226.84082,29.578125 L229.65332,29.578125 L231.657227,36.9433594 L231.709961,36.9433594 L233.705078,29.578125 L236.412109,29.578125 L233.168945,39.2109375 C232.369141,41.6279297 231.182617,42.4892578 228.783203,42.4892578 Z" id="#1ProductoftheDay"></path>
                <path d="M61.9570312,5.13574219 L61.9570312,15 L63.1875,15 L63.1875,11.4794922 L65.4638672,11.4794922 C67.3164062,11.4794922 68.6357422,10.1738281 68.6357422,8.30078125 C68.6357422,6.43457031 67.3300781,5.13574219 65.4775391,5.13574219 L61.9570312,5.13574219 Z M63.1875,6.22949219 L65.15625,6.22949219 C66.5712891,6.22949219 67.3710938,6.99511719 67.3710938,8.30078125 C67.3710938,9.61328125 66.5644531,10.3857422 65.15625,10.3857422 L63.1875,10.3857422 L63.1875,6.22949219 Z M69.859375,15 L71.0488281,15 L71.0488281,10.5703125 C71.0488281,9.56542969 71.6503906,8.90234375 72.5732422,8.90234375 C72.8603516,8.90234375 73.1132812,8.93652344 73.2089844,8.97070312 L73.2089844,7.81542969 L73.0582656,7.79267969 C72.9667187,7.77988281 72.8535156,7.76757812 72.7304688,7.76757812 C71.8964844,7.76757812 71.2402344,8.26660156 71.0078125,9.05273438 L70.9804688,9.05273438 L70.9804688,7.890625 L69.859375,7.890625 L69.859375,15 Z M77.1191406,15.1230469 C79.0810547,15.1230469 80.4072266,13.7080078 80.4072266,11.4453125 C80.4072266,9.17578125 79.0810547,7.76757812 77.1191406,7.76757812 C75.1503906,7.76757812 73.8242188,9.17578125 73.8242188,11.4453125 C73.8242188,13.7080078 75.1503906,15.1230469 77.1191406,15.1230469 Z M77.1191406,14.0771484 C75.8613281,14.0771484 75.0341797,13.1201172 75.0341797,11.4453125 C75.0341797,9.77050781 75.8613281,8.81347656 77.1191406,8.81347656 C78.3769531,8.81347656 79.1972656,9.77050781 79.1972656,11.4453125 C79.1972656,13.1201172 78.3769531,14.0771484 77.1191406,14.0771484 Z M84.296875,15.1230469 C85.3222656,15.1230469 86.1357422,14.6171875 86.59375,13.796875 L86.6142578,13.796875 L86.6142578,15 L87.7490234,15 L87.7490234,5.13574219 L86.5595703,5.13574219 L86.5595703,9.04589844 L86.5322266,9.04589844 C86.1083984,8.26660156 85.2880859,7.76757812 84.2695312,7.76757812 C82.4785156,7.76757812 81.2548828,9.21679688 81.2548828,11.4453125 C81.2548828,13.6738281 82.4853516,15.1230469 84.296875,15.1230469 Z M84.5224609,8.81347656 C85.7460938,8.81347656 86.5664062,9.859375 86.5664062,11.4453125 C86.5664062,13.0380859 85.7460938,14.0771484 84.5224609,14.0771484 C83.2646484,14.0771484 82.4716797,13.0585938 82.4716797,11.4453125 C82.4716797,9.83886719 83.2646484,8.81347656 84.5224609,8.81347656 Z M95.1933594,7.890625 L94.0039062,7.890625 L94.0039062,12.0673828 C94.0039062,13.2773438 93.3066406,14.0703125 92.1513672,14.0703125 C91.0507812,14.0703125 90.5107422,13.4482422 90.5107422,12.2929688 L90.5107422,7.890625 L89.3212891,7.890625 L89.3212891,12.5048828 C89.3212891,14.1181641 90.2304688,15.1230469 91.7822266,15.1230469 C92.8759766,15.1230469 93.6142578,14.6650391 94.0380859,13.8447266 L94.0654297,13.8447266 L94.0654297,15 L95.1933594,15 L95.1933594,7.890625 Z M102.637695,10.2216797 C102.487305,8.94335938 101.427734,7.76757812 99.6503906,7.76757812 C97.6884766,7.76757812 96.3828125,9.203125 96.3828125,11.4453125 C96.3828125,13.7353516 97.6953125,15.1230469 99.6640625,15.1230469 C101.277344,15.1230469 102.466797,14.125 102.651367,12.7099609 L101.482422,12.7099609 C101.277344,13.5644531 100.641602,14.0771484 99.6708984,14.0771484 C98.4404297,14.0771484 97.5927734,13.0996094 97.5927734,11.4453125 C97.5927734,9.83203125 98.4267578,8.81347656 99.6572266,8.81347656 C100.703125,8.81347656 101.304688,9.44921875 101.475586,10.2216797 L102.637695,10.2216797 Z M104.12793,6.17480469 L104.12793,7.890625 L103.068359,7.890625 L103.068359,8.86816406 L104.12793,8.86816406 L104.12793,13.1542969 C104.12793,14.5214844 104.633789,15.0546875 105.939453,15.0546875 C106.219727,15.0546875 106.547852,15.0341797 106.691406,15 L106.691406,14.0019531 C106.609375,14.015625 106.335938,14.0361328 106.199219,14.0361328 C105.59082,14.0361328 105.317383,13.7421875 105.317383,13.0927734 L105.317383,8.86816406 L106.698242,8.86816406 L106.698242,7.890625 L105.317383,7.890625 L105.317383,6.17480469 L104.12793,6.17480469 Z M118.893555,15 L118.893555,5.13574219 L117.663086,5.13574219 L117.663086,9.40136719 L112.249023,9.40136719 L112.249023,5.13574219 L111.018555,5.13574219 L111.018555,15 L112.249023,15 L112.249023,10.5087891 L117.663086,10.5087891 L117.663086,15 L118.893555,15 Z M126.460938,7.890625 L125.271484,7.890625 L125.271484,12.0673828 C125.271484,13.2773438 124.574219,14.0703125 123.418945,14.0703125 C122.318359,14.0703125 121.77832,13.4482422 121.77832,12.2929688 L121.77832,7.890625 L120.588867,7.890625 L120.588867,12.5048828 C120.588867,14.1181641 121.498047,15.1230469 123.049805,15.1230469 C124.143555,15.1230469 124.881836,14.6650391 125.305664,13.8447266 L125.333008,13.8447266 L125.333008,15 L126.460938,15 L126.460938,7.890625 Z M127.999023,15 L129.188477,15 L129.188477,10.8164062 C129.188477,9.61328125 129.919922,8.8203125 131.041016,8.8203125 C132.134766,8.8203125 132.674805,9.44921875 132.674805,10.5976562 L132.674805,15 L133.864258,15 L133.864258,10.3857422 C133.864258,8.77246094 132.961914,7.76757812 131.40332,7.76757812 C130.302734,7.76757812 129.543945,8.25976562 129.147461,9.02539062 L129.120117,9.02539062 L129.120117,7.890625 L127.999023,7.890625 L127.999023,15 Z M135.757812,6.17480469 L136.947266,6.17480469 L136.947266,7.890625 L138.328125,7.890625 L138.328125,8.86816406 L136.947266,8.86816406 L136.947266,13.0927734 C136.947266,13.7421875 137.220703,14.0361328 137.829102,14.0361328 L138.037789,14.0280391 C138.153945,14.0208203 138.27207,14.0101562 138.321289,14.0019531 L138.321289,15 C138.177734,15.0341797 137.849609,15.0546875 137.569336,15.0546875 C136.263672,15.0546875 135.757812,14.5214844 135.757812,13.1542969 L135.757812,8.86816406 L134.698242,8.86816406 L134.698242,7.890625 L135.757812,7.890625 L135.757812,6.17480469 Z" id="ProductHunt"></path>
                <g id="product-hunt">
                    <path d="M22.1292,44.2584 C34.351088,44.2584 44.2584,34.351088 44.2584,22.1292 C44.2584,9.90731199 34.351088,0 22.1292,0 C9.90731199,0 0,9.90731199 0,22.1292 C0,34.351088 9.90731199,44.2584 22.1292,44.2584 Z" id="Path" opacity="0.100000001"></path>
                    <path d="M16.5969,13.27752 L16.5969,30.98088 L19.91628,30.98088 L19.91628,25.44858 L24.9396084,25.44858 C28.2755853,25.3600632 30.98088,22.6547685 30.98088,19.36305 C30.98088,15.9828147 28.2755853,13.27752 24.9396084,13.27752 L16.5969,13.27752 Z M24.980582,22.1292 L19.91628,22.1292 L19.91628,16.5969 L24.980582,16.5969 C26.4609909,16.5969 27.6615,17.8361352 27.6615,19.36305 C27.6615,20.8899648 26.4609909,22.1292 24.980582,22.1292 Z" id="Shape"></path>
                </g>
            </g>
        </g>
    </g>
</svg>